# xmcd
#
# Track frame offsets: 
#        182
#        12820
#        24787
#        38860
#        55167
#        70127
#        83472
#        93770
#        109990
#        123195
#
# Disc length: 1873 seconds
#
# Revision: 3
# Processed by: cddbd v1.5.2PL0 Copyright (c) Steve Scherf et al.
# Submitted via: ExactAudioCopy v1.1
#
DISCID=69074f0a
DTITLE=Various Artist - Now This is Country Volume 1
DYEAR=1991
DGENRE=Country
TTITLE0=Lee Greenwood - Holdin' A Good Hand
TTITLE1=Tanya Tucker - Walking Shoes
TTITLE2=Sawyer Brown - Puttin' the Dark Back into the Night
TTITLE3=Exile - Nobody's Talkin'
TTITLE4=T. Graham Brown - Darlene
TTITLE5=Garth Brooks - Much Too Young (To Feel This Damn Old)
TTITLE6=Alan Jackson - Blue Blooded Woman
TTITLE7=Lacy J. Dalton - Black Coffee
TTITLE8=Hank Williams Jr. - I'm For Love
TTITLE9=Dan Seals - Love on Arrival
EXTD=YEAR: 1991
EXTT0=
EXTT1=
EXTT2=
EXTT3=
EXTT4=
EXTT5=
EXTT6=
EXTT7=
EXTT8=
EXTT9=
PLAYORDER=
